<svg xmlns="http://www.w3.org/2000/svg" viewBox="0 0 352.22 55.17"><defs><style>.cls-1{fill:#2e3192;}.cls-2{fill:#ed3845;}</style></defs><title>logo</title><g id="Layer_2" data-name="Layer 2"><g id="Layer_1-2" data-name="Layer 1"><path class="cls-1" d="M60.19,46.53a8.9,8.9,0,0,0,1.66,3.56,5.42,5.42,0,0,1,1.29,2.7v.29c0,.91-.57,1.37-1.72,1.37h-15c-1.15,0-1.73-.46-1.73-1.37v-.29a5.71,5.71,0,0,1,1.44-2.55,4.5,4.5,0,0,0,1.08-3.71L42.91,21.4l-11,30.89a2.66,2.66,0,0,1-2.6,2.09,3.13,3.13,0,0,1-3-2L13.68,20.25,9.79,46.53a4.63,4.63,0,0,0,1.15,3.67,5.45,5.45,0,0,1,1.44,2.59v.29c0,.91-.57,1.37-1.72,1.37H1.73C.58,54.45,0,54,0,53.08v-.29a5.32,5.32,0,0,1,1.33-2.7A8,8,0,0,0,3,46.53L8.42,11.25A4.43,4.43,0,0,0,7.16,7.58,5.31,5.31,0,0,1,5.62,5V4.7c0-.91.55-1.37,1.65-1.37h9.51a3.73,3.73,0,0,1,3.88,2.59L31.1,36.45,41.18,6.07a3.74,3.74,0,0,1,3.75-2.74h9.79c1.1,0,1.66.46,1.66,1.37V5c0,.48-.53,1.34-1.59,2.59a4.52,4.52,0,0,0-1.22,3.81Z"/><path class="cls-1" d="M82.44,55.17A20.55,20.55,0,0,1,68.29,50,16.56,16.56,0,0,1,62.5,37.1a16.34,16.34,0,0,1,5.76-12.85,20,20,0,0,1,13.68-5.08,20.33,20.33,0,0,1,14,5.11,16.58,16.58,0,0,1,5.76,13,16.56,16.56,0,0,1-5.61,12.85A19.56,19.56,0,0,1,82.44,55.17ZM84,51.64q4.6,0,4.61-8.85a39.9,39.9,0,0,0-.9-7.71,30.69,30.69,0,0,0-3-8.42q-2.13-4-4.72-4a3.71,3.71,0,0,0-3.6,2.23,16.23,16.23,0,0,0-1.08,6.77,32.14,32.14,0,0,0,.58,5.61,54.18,54.18,0,0,0,1.58,6.52,17,17,0,0,0,2.77,5.54A4.89,4.89,0,0,0,84,51.64Z"/><path class="cls-1" d="M140.9,46.6a7.29,7.29,0,0,0,1.37,3.57,5.44,5.44,0,0,1,1.22,2.7v.28c0,.92-.57,1.37-1.72,1.37h-14.4c-1.16,0-1.73-.45-1.73-1.37v-.28A5.39,5.39,0,0,1,127,50.2a5.2,5.2,0,0,0,1.22-3.6l-.72-12.89q-.29-5.33-1.4-7.56a3.75,3.75,0,0,0-3.57-2.23,3.89,3.89,0,0,0-3.49,1.87,9.53,9.53,0,0,0-1.19,5.12V46.6a5.47,5.47,0,0,0,1.59,3.6c1,1.2,1.58,2.09,1.58,2.67v.28c0,.92-.58,1.37-1.73,1.37H103.75c-1.15,0-1.73-.45-1.73-1.37v-.28q0-.87,1.59-2.67a5.51,5.51,0,0,0,1.58-3.6V32.42a3.68,3.68,0,0,0-.94-2.56,15.82,15.82,0,0,0-1.9-1.8,2.09,2.09,0,0,1-1-1.62v-.21c0-.63.58-1.23,1.73-1.8l10.08-5c.91-.39,1.6-.4,2,0a2.11,2.11,0,0,1,.69,1.77v3.38c2-3.6,5.45-5.4,10.29-5.4a13.36,13.36,0,0,1,9.29,3.53q3.88,3.53,4.47,11.45Z"/><path class="cls-1" d="M164,55.17A20.55,20.55,0,0,1,149.87,50a16.54,16.54,0,0,1-5.8-12.92,16.37,16.37,0,0,1,5.76-12.85,20,20,0,0,1,13.68-5.08,20.35,20.35,0,0,1,14,5.11,16.58,16.58,0,0,1,5.76,13,16.54,16.54,0,0,1-5.62,12.85A19.54,19.54,0,0,1,164,55.17Zm1.52-3.53q4.6,0,4.6-8.85a39.9,39.9,0,0,0-.9-7.71,30.36,30.36,0,0,0-3-8.42q-2.13-4-4.72-4a3.71,3.71,0,0,0-3.6,2.23,16.23,16.23,0,0,0-1.08,6.77,33.14,33.14,0,0,0,.58,5.61A54.18,54.18,0,0,0,159,43.83a17.24,17.24,0,0,0,2.78,5.54A4.86,4.86,0,0,0,165.53,51.64Z"/><path class="cls-1" d="M200.52,55.1a24.42,24.42,0,0,1-11.38-2.34c-3-1.56-4.46-3.59-4.46-6.09a4.22,4.22,0,0,1,1.4-3.45,5.66,5.66,0,0,1,3.71-1.15,5.06,5.06,0,0,1,3.89,1.54A8.15,8.15,0,0,1,195.62,47a9.45,9.45,0,0,0,1.73,3.38,3.83,3.83,0,0,0,3.17,1.55q3.89,0,3.88-4a4.87,4.87,0,0,0-2-4.1,14.09,14.09,0,0,0-4.78-2.31c-1.87-.53-3.74-1.13-5.58-1.8a10.94,10.94,0,0,1-4.75-3.38,9.42,9.42,0,0,1-2-6.27,9.33,9.33,0,0,1,4.24-7.88q4.25-3.06,11-3.06t10.9,2.52q4.22,2.52,4.22,6.12a4,4,0,0,1-1.41,3.13,4.92,4.92,0,0,1-3.42,1.26,4.78,4.78,0,0,1-3.74-1.51,7.82,7.82,0,0,1-1.84-3.35A11.28,11.28,0,0,0,203.79,24a3,3,0,0,0-2.62-1.51,2.91,2.91,0,0,0-2.49,1.23,4.7,4.7,0,0,0-.9,2.88,5.47,5.47,0,0,0,1.91,4.32,13.07,13.07,0,0,0,4.61,2.52c1.8.57,3.6,1.2,5.4,1.87a11,11,0,0,1,4.61,3.27A9.43,9.43,0,0,1,212,52.11Q207.79,55.1,200.52,55.1Z"/><path class="cls-1" d="M254.66,48.4a12.34,12.34,0,0,0,2.2,1.87q1.83,1.38,1.83,2.52v.29c0,.91-.55,1.37-1.65,1.37H241.92c-1.11,0-1.66-.48-1.66-1.44v-.22a3.62,3.62,0,0,1,1.08-2.12c.72-.84.87-1.59.43-2.27L235.44,39l-3.6,3.31V46.6a5.32,5.32,0,0,0,1.62,3.57c1.08,1.17,1.62,2,1.62,2.62v.29c0,.91-.58,1.37-1.73,1.37H217.8c-1.15,0-1.73-.46-1.73-1.37v-.29a5.18,5.18,0,0,1,1.44-2.62A5.65,5.65,0,0,0,219,46.6V13.7a5.24,5.24,0,0,0-1.73-3.64c-1.15-1.17-1.73-2-1.73-2.48V7.29c0-.53.53-1.08,1.59-1.66L228.6.31A2.74,2.74,0,0,1,231,.23a1.71,1.71,0,0,1,.87,1.59V36l9.72-8.35a1.33,1.33,0,0,0,.68-1.44,3.62,3.62,0,0,0-.72-1.55c-.36-.46-.74-1-1.15-1.55a2.74,2.74,0,0,1-.61-1.51v-.29q0-1.44,1.65-1.44h11.38c1.1,0,1.65.46,1.65,1.37v.29a2.47,2.47,0,0,1-1,1.76,23.9,23.9,0,0,1-2.85,2.09,21.43,21.43,0,0,0-2.91,2.19l-4.61,4.25Z"/><path class="cls-1" d="M259.7,54.45c-1.15,0-1.73-.46-1.73-1.37v-.29a5.37,5.37,0,0,1,1.44-2.66,5.76,5.76,0,0,0,1.44-3.6V32.85a5.72,5.72,0,0,0-1.44-3.64A5.47,5.47,0,0,1,258,26.8v-.29c0-.57.55-1.12,1.66-1.65l10.87-5.33a2.64,2.64,0,0,1,2.38-.14,1.77,1.77,0,0,1,.86,1.65V46.53a5.42,5.42,0,0,0,1.62,3.6c1.08,1.2,1.62,2.09,1.62,2.66v.29c0,.91-.6,1.37-1.8,1.37Z"/><path class="cls-2" d="M267.4,15.64a8.63,8.63,0,0,1-6-2.05,6.59,6.59,0,0,1-2.31-5.15,6.61,6.61,0,0,1,2.31-5.15,9.63,9.63,0,0,1,11.88,0,6.63,6.63,0,0,1,2.3,5.15,6.62,6.62,0,0,1-2.3,5.15A8.56,8.56,0,0,1,267.4,15.64Z"/><path class="cls-1" d="M317.37,46.6a7.29,7.29,0,0,0,1.37,3.57,5.44,5.44,0,0,1,1.22,2.7v.28c0,.92-.57,1.37-1.73,1.37H303.84c-1.16,0-1.73-.45-1.73-1.37v-.28a5.39,5.39,0,0,1,1.37-2.67,5.2,5.2,0,0,0,1.22-3.6L304,33.71q-.28-5.33-1.4-7.56A3.75,3.75,0,0,0,299,23.92a3.89,3.89,0,0,0-3.49,1.87,9.53,9.53,0,0,0-1.19,5.12V46.6a5.47,5.47,0,0,0,1.59,3.6c1.05,1.2,1.58,2.09,1.58,2.67v.28c0,.92-.58,1.37-1.73,1.37H280.22c-1.15,0-1.73-.45-1.73-1.37v-.28q0-.87,1.59-2.67a5.51,5.51,0,0,0,1.58-3.6V32.42a3.68,3.68,0,0,0-.94-2.56,15.16,15.16,0,0,0-1.91-1.8,2.11,2.11,0,0,1-1-1.62v-.21c0-.63.58-1.23,1.73-1.8l10.08-5c.91-.39,1.6-.4,2.05,0a2.11,2.11,0,0,1,.69,1.77v3.38q3-5.4,10.29-5.4A13.36,13.36,0,0,1,312,22.7q3.88,3.53,4.47,11.45Z"/><path class="cls-1" d="M336.52,55.1a24.38,24.38,0,0,1-11.37-2.34q-4.47-2.34-4.47-6.09a4.2,4.2,0,0,1,1.41-3.45,5.64,5.64,0,0,1,3.71-1.15,5,5,0,0,1,3.88,1.54A8.18,8.18,0,0,1,331.63,47a9.29,9.29,0,0,0,1.73,3.38,3.82,3.82,0,0,0,3.16,1.55c2.6,0,3.89-1.32,3.89-4a4.87,4.87,0,0,0-2-4.1,14.06,14.06,0,0,0-4.79-2.31q-2.81-.8-5.58-1.8a11.06,11.06,0,0,1-4.75-3.38,9.48,9.48,0,0,1-2-6.27,9.34,9.34,0,0,1,4.25-7.88q4.25-3.06,10.94-3.06t10.91,2.52q4.21,2.52,4.21,6.12a4,4,0,0,1-1.4,3.13,5,5,0,0,1-3.42,1.26,4.8,4.8,0,0,1-3.75-1.51,7.8,7.8,0,0,1-1.83-3.35A11.28,11.28,0,0,0,339.8,24a3,3,0,0,0-2.63-1.51,2.9,2.9,0,0,0-2.48,1.23,4.7,4.7,0,0,0-.9,2.88,5.44,5.44,0,0,0,1.91,4.32,13,13,0,0,0,4.6,2.52c1.8.57,3.6,1.2,5.4,1.87a10.92,10.92,0,0,1,4.61,3.27A9.42,9.42,0,0,1,348,52.11Q343.79,55.1,336.52,55.1Z"/></g></g></svg>