<svg xmlns="http://www.w3.org/2000/svg" viewBox="0 0 70.49 62.99"><defs><style>.cls-1{fill:#2e3192;}.cls-2{fill:#ed3845;}</style></defs><title>symbol</title><g id="Layer_2" data-name="Layer 2"><g id="Layer_1-2" data-name="Layer 1"><path class="cls-1" d="M60.62,54.35a11,11,0,0,0,1.66,3.78,6.46,6.46,0,0,1,1.3,3.06v.28c0,1-.6,1.52-1.8,1.52H45.14c-1.2,0-1.8-.51-1.8-1.52v-.28a6.33,6.33,0,0,1,1.44-2.88,5.4,5.4,0,0,0,1.16-4L42.12,32.24,32,60.68a2.8,2.8,0,0,1-2.81,2.23A3.3,3.3,0,0,1,26,60.75L13.9,30.8,10.58,54.35a5.4,5.4,0,0,0,1.16,4,6.33,6.33,0,0,1,1.44,2.88v.28c0,1-.6,1.52-1.8,1.52H1.8C.6,63,0,62.48,0,61.47v-.28a6.14,6.14,0,0,1,1.33-3A9.23,9.23,0,0,0,3,54.35L8.06,20.51a5,5,0,0,0-1.33-4q-1.62-2-1.62-2.88v-.29c0-1,.6-1.51,1.8-1.51h10.8a3.91,3.91,0,0,1,4.11,2.8l9.5,27.8,8.93-27.65a3.93,3.93,0,0,1,4-3H55.37c1.2,0,1.8.5,1.8,1.51v.29c0,.57-.55,1.53-1.66,2.88a4.79,4.79,0,0,0-1.29,4Z"/><path class="cls-2" d="M68.78,9.12a7.08,7.08,0,0,1-8.84,0,4.93,4.93,0,0,1-1.71-3.81,4.86,4.86,0,0,1,1.71-3.79,7.19,7.19,0,0,1,8.84,0,4.86,4.86,0,0,1,1.71,3.79A4.93,4.93,0,0,1,68.78,9.12Z"/></g></g></svg>